<svg width="29" height="29" viewBox="0 0 29 29" fill="none" xmlns="http://www.w3.org/2000/svg">
<g clip-path="url(#clip0_576_3673)">
<path d="M5.66373 8.26208C5.44519 8.26264 5.23162 8.32732 5.0495 8.4481C4.86737 8.56888 4.7247 8.74046 4.63916 8.94156C1.94477 9.09555 -0.00838294 9.35452 2.70548e-05 9.55694C0.00785705 9.75791 1.94651 9.84607 4.61915 9.7669C4.71195 10.0169 4.89059 10.2251 5.12317 10.3547H4.68933V11.1499H4.15863C4.12532 11.1499 4.09233 11.1564 4.06154 11.1691C4.03076 11.1818 4.00278 11.2005 3.97922 11.224C3.95565 11.2476 3.93695 11.2755 3.9242 11.3063C3.91144 11.3371 3.90488 11.3701 3.90488 11.4034V11.97C3.90488 12.1101 4.01827 12.2235 4.15834 12.2235H7.72998C8.62985 12.4352 8.73048 12.758 9.40444 13.3487C9.29424 13.9615 9.13184 14.6305 9.00482 15.2087V20.1309C9.00482 20.2919 9.06875 20.4462 9.18255 20.56C9.29635 20.6738 9.4507 20.7377 9.61164 20.7377C9.77258 20.7377 9.92693 20.6738 10.0407 20.56C10.1545 20.4462 10.2185 20.2919 10.2185 20.1309V17.7509C10.2045 15.7499 10.5276 14.9408 11.6409 13.3919L11.9208 13.262C11.9208 14.4643 12.7519 14.5365 13.9241 14.8048H13.0436C12.7757 14.8048 12.5582 15.0223 12.5582 15.2905V18.1905C12.5582 18.4585 12.7757 18.676 13.0436 18.676H15.9564C16.2244 18.676 16.4419 18.4585 16.4419 18.1905V15.2905C16.4419 15.0223 16.2244 14.8051 15.9564 14.8051H15.0768C16.2487 14.5359 17.0793 14.464 17.0793 13.262L17.3591 13.3919C18.7677 14.8494 18.7816 15.8415 18.7816 17.7506V20.1306C18.7816 20.2916 18.8455 20.4459 18.9593 20.5597C19.0731 20.6735 19.2275 20.7375 19.3884 20.7375C19.5494 20.7375 19.7037 20.6735 19.8175 20.5597C19.9313 20.4459 19.9952 20.2916 19.9952 20.1306V15.2087C19.8465 14.5734 19.6873 13.9075 19.537 13.2478C20.1747 12.6228 20.4363 12.4822 21.2643 12.2235H24.8417C24.9089 12.2235 24.9734 12.1968 25.0209 12.1492C25.0685 12.1017 25.0952 12.0372 25.0952 11.97V11.4034C25.0952 11.3361 25.0685 11.2717 25.0209 11.2241C24.9734 11.1766 24.9089 11.1499 24.8417 11.1499H24.3107V10.3547H23.8769C24.1096 10.2252 24.2884 10.0167 24.3809 9.7669C27.0535 9.84607 28.9922 9.75791 29 9.55694C29.0084 9.35452 27.0553 9.09584 24.3609 8.94156C24.2783 8.74766 24.1425 8.5811 23.9692 8.4611C23.796 8.3411 23.5923 8.27256 23.3818 8.2634C23.1712 8.25424 22.9623 8.30484 22.7793 8.40934C22.5963 8.51384 22.4466 8.66799 22.3474 8.85398C19.6484 8.77191 17.6776 8.85919 17.6662 9.06161C17.6578 9.26259 19.5846 9.51982 22.2561 9.6741C22.2952 9.81731 22.3626 9.95127 22.4542 10.0681C22.5457 10.185 22.6597 10.2824 22.7894 10.3547H22.3555V11.1499C19.6197 11.1435 17.5021 9.76864 14.5 9.71209C11.5992 9.77357 9.16983 11.1499 6.64451 11.1499V10.3547H6.21067C6.34035 10.2824 6.45431 10.185 6.54589 10.0681C6.63746 9.95127 6.7048 9.81731 6.74398 9.6741C9.41546 9.51982 11.3422 9.2623 11.3338 9.06161C11.3225 8.85919 9.35166 8.77162 6.65263 8.85398C6.55717 8.67476 6.41465 8.52498 6.2404 8.42074C6.06615 8.31649 5.86678 8.26145 5.66373 8.26208ZM14.5 15.5159C15.1807 15.5159 15.7401 16.0753 15.7401 16.7559C15.7401 17.4365 15.1807 17.9959 14.5 17.9959C13.8194 17.9959 13.2594 17.4362 13.2594 16.7556C13.2594 16.075 13.8191 15.5159 14.5 15.5159ZM14.5 16.2435C14.2129 16.2435 13.9876 16.4685 13.9876 16.7556C13.9876 17.0427 14.2129 17.2677 14.5 17.2677C14.7871 17.2677 15.0119 17.0427 15.0119 16.7556C15.0119 16.4685 14.7871 16.2435 14.5 16.2435Z" fill="#07223F" fill-opacity="0.8"/>
</g>
<defs>
<clipPath id="clip0_576_3673">
<rect width="29" height="29" fill="white"/>
</clipPath>
</defs>
</svg>
